<mxfile host="Electron" modified="2023-08-28T05:29:00.177Z" agent="Mozilla/5.0 (Macintosh; Intel Mac OS X 10_15_7) AppleWebKit/537.36 (KHTML, like Gecko) draw.io/21.6.8 Chrome/114.0.5735.289 Electron/25.5.0 Safari/537.36" etag="tYeqmER3oBZ5a0Fi1UDh" version="21.6.8" type="device">
  <diagram name="Page-1" id="gSFOo2CogLlwidSt94cw">
    <mxGraphModel dx="954" dy="674" grid="0" gridSize="10" guides="1" tooltips="1" connect="1" arrows="1" fold="1" page="1" pageScale="1" pageWidth="850" pageHeight="1100" background="none" math="0" shadow="0">
      <root>
        <mxCell id="0" />
        <mxCell id="1" parent="0" />
        <mxCell id="URSP7-iYjmZoMHZTMj2H-1" value="" style="rounded=1;whiteSpace=wrap;html=1;" parent="1" vertex="1">
          <mxGeometry x="80" y="480" width="600" height="40" as="geometry" />
        </mxCell>
        <UserObject label="&lt;b&gt;gfortran&lt;/b&gt; (FC)" link="https://gcc.gnu.org/wiki/GFortran" linkTarget="_blank" id="URSP7-iYjmZoMHZTMj2H-3">
          <mxCell style="rounded=1;whiteSpace=wrap;html=1;strokeWidth=1;" parent="1" vertex="1">
            <mxGeometry x="120" y="190" width="80" height="50" as="geometry" />
          </mxCell>
        </UserObject>
        <mxCell id="URSP7-iYjmZoMHZTMj2H-4" value="&lt;b&gt;gcc&lt;/b&gt; (CC)" style="rounded=1;whiteSpace=wrap;html=1;strokeWidth=1;" parent="1" vertex="1">
          <mxGeometry x="120" y="260" width="80" height="50" as="geometry" />
        </mxCell>
        <mxCell id="URSP7-iYjmZoMHZTMj2H-5" value="&lt;b&gt;curl&lt;/b&gt;" style="rounded=1;whiteSpace=wrap;html=1;strokeWidth=1;" parent="1" vertex="1">
          <mxGeometry x="120" y="340" width="80" height="50" as="geometry" />
        </mxCell>
        <mxCell id="URSP7-iYjmZoMHZTMj2H-6" value="&lt;b&gt;git&lt;/b&gt;" style="rounded=1;whiteSpace=wrap;html=1;strokeWidth=1;" parent="1" vertex="1">
          <mxGeometry x="120" y="410" width="80" height="50" as="geometry" />
        </mxCell>
        <mxCell id="URSP7-iYjmZoMHZTMj2H-7" value="&lt;b&gt;python3&lt;/b&gt;" style="rounded=1;whiteSpace=wrap;html=1;strokeWidth=1;" parent="1" vertex="1">
          <mxGeometry x="220" y="190" width="80" height="50" as="geometry" />
        </mxCell>
        <mxCell id="URSP7-iYjmZoMHZTMj2H-8" value="&lt;b&gt;python3-pip&lt;/b&gt;" style="rounded=1;whiteSpace=wrap;html=1;strokeWidth=1;" parent="1" vertex="1">
          <mxGeometry x="220" y="260" width="80" height="50" as="geometry" />
        </mxCell>
        <mxCell id="URSP7-iYjmZoMHZTMj2H-9" value="&lt;b&gt;cmake&lt;/b&gt;" style="rounded=1;whiteSpace=wrap;html=1;strokeWidth=1;" parent="1" vertex="1">
          <mxGeometry x="220" y="340" width="80" height="50" as="geometry" />
        </mxCell>
        <mxCell id="URSP7-iYjmZoMHZTMj2H-10" value="&lt;b&gt;ninja-build&lt;/b&gt;" style="rounded=1;whiteSpace=wrap;html=1;strokeWidth=1;" parent="1" vertex="1">
          <mxGeometry x="220" y="410" width="80" height="50" as="geometry" />
        </mxCell>
        <mxCell id="URSP7-iYjmZoMHZTMj2H-11" value="&lt;b&gt;lapack&lt;/b&gt;" style="rounded=1;whiteSpace=wrap;html=1;flipV=1;strokeWidth=1;" parent="1" vertex="1">
          <mxGeometry x="320" y="190" width="80" height="50" as="geometry" />
        </mxCell>
        <mxCell id="URSP7-iYjmZoMHZTMj2H-12" value="&lt;b&gt;openblas&lt;/b&gt;" style="rounded=1;whiteSpace=wrap;html=1;flipV=1;strokeWidth=1;" parent="1" vertex="1">
          <mxGeometry x="320" y="260" width="80" height="50" as="geometry" />
        </mxCell>
        <mxCell id="URSP7-iYjmZoMHZTMj2H-13" value="&lt;b&gt;hdf5&lt;/b&gt;" style="rounded=1;whiteSpace=wrap;html=1;flipV=1;strokeWidth=1;" parent="1" vertex="1">
          <mxGeometry x="320" y="340" width="80" height="50" as="geometry" />
        </mxCell>
        <mxCell id="URSP7-iYjmZoMHZTMj2H-14" value="&lt;b&gt;plplot&lt;/b&gt;" style="rounded=1;whiteSpace=wrap;html=1;flipV=1;strokeWidth=1;" parent="1" vertex="1">
          <mxGeometry x="320" y="410" width="80" height="50" as="geometry" />
        </mxCell>
        <mxCell id="URSP7-iYjmZoMHZTMj2H-16" value="&lt;b&gt;boost&lt;/b&gt;" style="rounded=1;whiteSpace=wrap;html=1;strokeWidth=1;" parent="1" vertex="1">
          <mxGeometry x="430" y="260" width="80" height="50" as="geometry" />
        </mxCell>
        <mxCell id="URSP7-iYjmZoMHZTMj2H-17" value="&lt;b&gt;gnuplot&lt;/b&gt;" style="rounded=1;whiteSpace=wrap;html=1;strokeWidth=1;" parent="1" vertex="1">
          <mxGeometry x="430" y="340" width="80" height="50" as="geometry" />
        </mxCell>
        <mxCell id="URSP7-iYjmZoMHZTMj2H-18" value="&lt;b&gt;gnuplot&lt;/b&gt;" style="rounded=1;whiteSpace=wrap;html=1;strokeWidth=1;" parent="1" vertex="1">
          <mxGeometry x="430" y="410" width="80" height="50" as="geometry" />
        </mxCell>
        <mxCell id="URSP7-iYjmZoMHZTMj2H-19" value="&lt;b&gt;gtk-4&lt;/b&gt;" style="rounded=1;whiteSpace=wrap;html=1;" parent="1" vertex="1">
          <mxGeometry x="430" y="190" width="80" height="50" as="geometry" />
        </mxCell>
        <mxCell id="URSP7-iYjmZoMHZTMj2H-22" value="System requirements for &lt;b&gt;EASIFEM&lt;/b&gt;" style="text;html=1;align=center;verticalAlign=middle;resizable=0;points=[];autosize=1;strokeColor=none;fillColor=none;" parent="1" vertex="1">
          <mxGeometry x="240" y="485" width="210" height="30" as="geometry" />
        </mxCell>
        <mxCell id="kLo2bMwMqgzOgkNEkuJD-1" value="" style="whiteSpace=wrap;html=1;aspect=fixed;fontSize=16;rounded=1;gradientColor=#1E1E2E;gradientDirection=north;strokeColor=#F9E2AF;fillColor=#1A1A1A;" vertex="1" parent="1">
          <mxGeometry x="597" y="390" width="80" height="80" as="geometry" />
        </mxCell>
        <mxCell id="URSP7-iYjmZoMHZTMj2H-20" value="" style="shape=image;verticalLabelPosition=bottom;labelBackgroundColor=default;verticalAlign=top;aspect=fixed;imageAspect=0;image=data:image/svg+xml,PHN2ZyB4bWxuczp4bGluaz0iaHR0cDovL3d3dy53My5vcmcvMTk5OS94bGluayIgeG1sbnM9Imh0dHA6Ly93d3cudzMub3JnLzIwMDAvc3ZnIiB4bWw6c3BhY2U9InByZXNlcnZlIiB3aWR0aD0iMTAwJSIgdmlld0JveD0iMCAwIDE5NS44MjEgMTgwLjQ4MSIgdmVyc2lvbj0iMS4xIiBzdHlsZT0iZmlsbC1ydWxlOm5vbnplcm87Y2xpcC1ydWxlOmV2ZW5vZGQ7c3Ryb2tlLWxpbmVjYXA6cm91bmQ7c3Ryb2tlLWxpbmVqb2luOnJvdW5kOyIgc3Ryb2tlLW1pdGVybGltaXQ9IjEwIiBoZWlnaHQ9IjEwMCUiPiYjeGE7PGRlZnMvPiYjeGE7PGcgaWQ9ImxheWVyMSI+JiN4YTs8ZyBvcGFjaXR5PSIxIj4mI3hhOzxwYXRoIHN0cm9rZS13aWR0aD0iMi4wMDAyNSIgc3Ryb2tlLWxpbmVqb2luPSJtaXRlciIgc3Ryb2tlLWxpbmVjYXA9InJvdW5kIiBzdHJva2U9IiMxYTFhMWEiIG9wYWNpdHk9IjAuNSIgZmlsbC1ydWxlPSJub256ZXJvIiBmaWxsPSIjOTk5OTk5IiBkPSJNNTguMzY4MyAxNTEuNzYzQzU4LjM2ODMgMTQ5Ljc3NCA1OC41NDkyIDE0OC4xNjEgNTguNzcyMyAxNDguMTYxQzU4Ljk5NTUgMTQ4LjE2MSA1OS4xNzY0IDE0OS43NzQgNTkuMTc2NCAxNTEuNzYzQzU5LjE3NjQgMTUzLjc1MyA1OC45OTU1IDE1NS4zNjYgNTguNzcyMyAxNTUuMzY2QzU4LjU0OTIgMTU1LjM2NiA1OC4zNjgzIDE1My43NTMgNTguMzY4MyAxNTEuNzYzWiIvPiYjeGE7PHBhdGggc3Ryb2tlPSJub25lIiBvcGFjaXR5PSIxIiBmaWxsLXJ1bGU9Im5vbnplcm8iIGZpbGw9IiM3MGJmNGYiIGQ9Ik0xMzAuOTQ1IDE2MS4yN0wxNDQuOTQgMTU0LjI0OEwxNDQuOTQgMTM4LjYyNUwxMzAuOTQ1IDE0NS42NDhMMTMwLjk0NSAxNjEuMjdaTTEzMC45NDUgMTQzLjk2OEwxNDQuOTQgMTM2Ljk0NkwxNDQuOTQgMTIxLjMyNEwxMzAuOTQ1IDEyOC4zNDVMMTMwLjk0NSAxNDMuOTY4Wk0xMTIuOTczIDg2Ljk1MTJMOTguODk2OCA3OS45MzM1TDg0LjkwMjQgODYuOTU1M0w5OC45NzgxIDkzLjk3MjdMMTEyLjk3MyA4Ni45NTEyWk05Ny40NTg1IDk0LjczNjJMODMuMzgxNiA4Ny43MTg2TDY5LjM4NyA5NC43NDA0TDgzLjQ2MzkgMTAxLjc1OEw5Ny40NTg1IDk0LjczNjJaTTExNC42MDQgMTAxLjc2M0wxMjguNTk5IDk0Ljc0MDRMMTE0LjUxMyA4Ny43MTg2TDEwMC41MTggOTQuNzQwNEwxMTQuNjA0IDEwMS43NjNaTTg1LjAwMzkgMTAyLjUyNUw5OS4wOTAxIDEwOS41NDhMMTEzLjA4NSAxMDIuNTI1TDk4Ljk5ODUgOTUuNTAzOUw4NS4wMDM5IDEwMi41MjVaTTEzMC4xMyA5NS41MDM5TDExNi4xMzUgMTAyLjUyNUwxMzAuMjIyIDEwOS41NDdMMTQ0LjIxNiAxMDIuNTI1TDEzMC4xMyA5NS41MDM5Wk02Ny44NjI5IDk1LjUwMzlMNTMuODY4MyAxMDIuNTI1TDY3Ljk0NTMgMTA5LjU0M0w4MS45Mzk5IDEwMi41MjJMNjcuODYyOSA5NS41MDM5Wk04My40NzkxIDEwMy4yODlMNjkuNDg0NSAxMTAuMzExTDgzLjU3MDUgMTE3LjMzNEw5Ny41NjUxIDExMC4zMTFMODMuNDc5MSAxMDMuMjg5Wk05OS45MTU2IDE3Ni44NDFMMTEzLjkxIDE2OS44MTlMMTEzLjkxIDE1NC4xOTdMOTkuOTE1NiAxNjEuMjE4TDk5LjkxNTYgMTc2Ljg0MVpNOTkuOTE1NiAxNTkuNTM4TDExMy45MSAxNTIuNTE2TDExMy45MSAxMzYuODk0TDk5LjkxNTYgMTQzLjkxNkw5OS45MTU2IDE1OS41MzhaTTk5LjA5OTIgMTExLjA3NEw4NS4xMDQ2IDExOC4wOTZMOTkuMTkwOCAxMjUuMTE4TDExMy4xODUgMTE4LjA5Nkw5OS4wOTkyIDExMS4wNzRaTTUzLjA1NzEgMTU0LjI0OEw2Ny4xMzQgMTYxLjI2Nkw2Ny4xMzQgMTQ1LjY0NEw1My4wNTcxIDEzOC42MjZMNTMuMDU3MSAxNTQuMjQ4Wk01My4wNTcxIDEzNi45NDZMNjcuMTM0IDE0My45NjNMNjcuMTM0IDEyOC4zNDFMNTMuMDU3MSAxMjEuMzI0TDUzLjA1NzEgMTM2Ljk0NlpNNTMuMDU3MSAxMTkuNTY2TDY3LjEzNCAxMjYuNTg0TDY3LjEzNCAxMTAuOTYxTDUzLjA1NzEgMTAzLjk0NEw1My4wNTcxIDExOS41NjZaTTY4LjY3NDIgMTYyLjAzNEw4Mi43NjAyIDE2OS4wNTVMODIuNzYwMiAxNTMuNDMzTDY4LjY3NDIgMTQ2LjQxMUw2OC42NzQyIDE2Mi4wMzRaTTY4LjY3NDIgMTQ0LjczMUw4Mi43NjAyIDE1MS43NTRMODIuNzYwMiAxMzYuMTMxTDY4LjY3NDIgMTI5LjEwOUw2OC42NzQyIDE0NC43MzFaTTY4LjY3NDIgMTI3LjM1MUw4Mi43NjAyIDEzNC4zNzNMODIuNzYwMiAxMTguNzVMNjguNjc0MiAxMTEuNzI5TDY4LjY3NDIgMTI3LjM1MVpNODQuMjkwNCAxNjkuODE5TDk4LjM3NjQgMTc2Ljg0MUw5OC4zNzY0IDE2MS4yMThMODQuMjkwNCAxNTQuMTk3TDg0LjI5MDQgMTY5LjgxOVpNODQuMjkwNCAxNTIuNTE2TDk4LjM3NjQgMTU5LjUzOEw5OC4zNzY0IDE0My45MTZMODQuMjkwNCAxMzYuODk0TDg0LjI5MDQgMTUyLjUxNlpNODQuMjkwNCAxMzUuMTM2TDk4LjM3NjQgMTQyLjE1OEw5OC4zNzY0IDEyNi41MzZMODQuMjkwNCAxMTkuNTE0TDg0LjI5MDQgMTM1LjEzNlpNMTE1LjQzIDE2OS4wNTVMMTI5LjQyNCAxNjIuMDM0TDEyOS40MjQgMTQ2LjQxTDExNS40MyAxNTMuNDMzTDExNS40MyAxNjkuMDU1Wk0xMTUuNDMgMTUxLjc1M0wxMjkuNDI0IDE0NC43MzFMMTI5LjQyNCAxMjkuMTA5TDExNS40MyAxMzYuMTMxTDExNS40MyAxNTEuNzUzWk0xMTQuNjE1IDEwMy4yODlMMTAwLjYyIDExMC4zMTFMMTE0LjcwNiAxMTcuMzMyTDEyOC43MDEgMTEwLjMxMUwxMTQuNjE1IDEwMy4yODlaTTEzMC45NDUgMTExLjE5NkwxMzAuOTQ1IDEyNi44MThMMTQ0Ljk0IDExOS43OTdMMTQ0Ljk0IDEwNC4xNzRMMTMwLjk0NSAxMTEuMTk2Wk05OS45MTU2IDE0Mi4xNThMMTEzLjkxIDEzNS4xMzZMMTEzLjkxIDExOS41MTRMOTkuOTE1NiAxMjYuNTM2TDk5LjkxNTYgMTQyLjE1OFpNMTE1LjQzIDEzNC42MDRMMTI5LjQyNCAxMjcuNTgyTDEyOS40MjQgMTExLjk2TDExNS40MyAxMTguOTgxTDExNS40MyAxMzQuNjA0WiIvPiYjeGE7PHBhdGggc3Ryb2tlPSJub25lIiBvcGFjaXR5PSIxIiBmaWxsLXJ1bGU9Im5vbnplcm8iIGZpbGw9IiNmZjdlMjciIGQ9Ik04My42NjEzIDg3LjU3TDk3LjY1NiA4MC41NDgyTDk3LjY1NiA2NC45MjQ5TDgzLjY2MTMgNzEuOTQ3N0w4My42NjEzIDg3LjU3Wk04My42NjEzIDcwLjI2NzRMOTcuNjU2IDYzLjI0NTZMOTcuNjU2IDQ3LjYyMzVMODMuNjYxMyA1NC42NDUxTDgzLjY2MTMgNzAuMjY3NFpNNjUuNjg4OCAxMy4yNTFMNTEuNjEyOCA2LjIzMzM1TDM3LjYxODUgMTMuMjU1MUw1MS42OTQyIDIwLjI3MjZMNjUuNjg4OCAxMy4yNTFaTTUwLjE3NDYgMjEuMDM2MUwzNi4wOTc2IDE0LjAxODRMMjIuMTAzIDIxLjA0MDJMMzYuMTc5OSAyOC4wNTc5TDUwLjE3NDYgMjEuMDM2MVpNNjcuMzIwNCAyOC4wNjNMODEuMzE1IDIxLjA0MDJMNjcuMjI5IDE0LjAxODRMNTMuMjM0NCAyMS4wNDAyTDY3LjMyMDQgMjguMDYzWk0zNy43MTk5IDI4LjgyNTNMNTEuODA2MiAzNS44NDgxTDY1LjgwMDggMjguODI1M0w1MS43MTQ1IDIxLjgwMzdMMzcuNzE5OSAyOC44MjUzWk04Mi44NDYyIDIxLjgwMzdMNjguODUxNSAyOC44MjUzTDgyLjkzNzUgMzUuODQ3MUw5Ni45MzIyIDI4LjgyNTNMODIuODQ2MiAyMS44MDM3Wk0yMC41NzkgMjEuODAzN0w2LjU4NDM1IDI4LjgyNTNMMjAuNjYxMyAzNS44NDI5TDM0LjY1NTkgMjguODIxM0wyMC41NzkgMjEuODAzN1pNMzYuMTk1MSAyOS41ODg4TDIyLjIwMDUgMzYuNjEwNUwzNi4yODY1IDQzLjYzMzNMNTAuMjgxMSAzNi42MTA1TDM2LjE5NTEgMjkuNTg4OFpNNTIuNjMxNiAxMDMuMTRMNjYuNjI2MiA5Ni4xMTg2TDY2LjYyNjIgODAuNDk2NUw1Mi42MzE2IDg3LjUxODFMNTIuNjMxNiAxMDMuMTRaTTUyLjYzMTYgODUuODM3N0w2Ni42MjYyIDc4LjgxNTlMNjYuNjI2MiA2My4xOTM5TDUyLjYzMTYgNzAuMjE1NEw1Mi42MzE2IDg1LjgzNzdaTTUxLjgxNTIgMzcuMzc0MUwzNy44MjA2IDQ0LjM5NTZMNTEuOTA2OSA1MS40MTc0TDY1LjkwMTIgNDQuMzk1Nkw1MS44MTUyIDM3LjM3NDFaTTUuNzczMDggODAuNTQ4MkwxOS44NSA4Ny41NjU4TDE5Ljg1IDcxLjk0MzhMNS43NzMwOCA2NC45MjYyTDUuNzczMDggODAuNTQ4MlpNNS43NzMwOCA2My4yNDU2TDE5Ljg1IDcwLjI2MzJMMTkuODUgNTQuNjQxMUw1Ljc3MzA4IDQ3LjYyMzVMNS43NzMwOCA2My4yNDU2Wk01Ljc3MzA4IDQ1Ljg2NTdMMTkuODUgNTIuODgzNEwxOS44NSAzNy4yNjExTDUuNzczMDggMzAuMjQzNEw1Ljc3MzA4IDQ1Ljg2NTdaTTIxLjM5MDIgODguMzMzNUwzNS40NzYyIDk1LjM1NTFMMzUuNDc2MiA3OS43MzNMMjEuMzkwMiA3Mi43MTEyTDIxLjM5MDIgODguMzMzNVpNMjEuMzkwMiA3MS4wMzA5TDM1LjQ3NjIgNzguMDUzNEwzNS40NzYyIDYyLjQzMDRMMjEuMzkwMiA1NS40MDg1TDIxLjM5MDIgNzEuMDMwOVpNMjEuMzkwMiA1My42NTA4TDM1LjQ3NjIgNjAuNjcyNkwzNS40NzYyIDQ1LjA1MDNMMjEuMzkwMiAzOC4wMjg3TDIxLjM5MDIgNTMuNjUwOFpNMzcuMDA2NCA5Ni4xMTg2TDUxLjA5MjQgMTAzLjE0TDUxLjA5MjQgODcuNTE4MUwzNy4wMDY0IDgwLjQ5NjVMMzcuMDA2NCA5Ni4xMTg2Wk0zNy4wMDY0IDc4LjgxNTlMNTEuMDkyNCA4NS44Mzc3TDUxLjA5MjQgNzAuMjE1NEwzNy4wMDY0IDYzLjE5MzlMMzcuMDA2NCA3OC44MTU5Wk0zNy4wMDY0IDYxLjQzNjFMNTEuMDkyNCA2OC40NTc2TDUxLjA5MjQgNTIuODM1NkwzNy4wMDY0IDQ1LjgxMzhMMzcuMDA2NCA2MS40MzYxWk02OC4xNDYxIDk1LjM1NTFMODIuMTQwNSA4OC4zMzM1TDgyLjE0MDUgNzIuNzEwMkw2OC4xNDYxIDc5LjczM0w2OC4xNDYxIDk1LjM1NTFaTTY4LjE0NjEgNzguMDUyNEw4Mi4xNDA1IDcxLjAzMDlMODIuMTQwNSA1NS40MDg1TDY4LjE0NjEgNjIuNDMwNEw2OC4xNDYxIDc4LjA1MjRaTTY3LjMzMDcgMjkuNTg4OEw1My4zMzYxIDM2LjYxMDVMNjcuNDIyMSA0My42MzIxTDgxLjQxNjcgMzYuNjEwNUw2Ny4zMzA3IDI5LjU4ODhaTTgzLjY2MTMgMzcuNDk2MUw4My42NjEzIDUzLjExODFMOTcuNjU2IDQ2LjA5NjVMOTcuNjU2IDMwLjQ3NDJMODMuNjYxMyAzNy40OTYxWk01Mi42MzE2IDY4LjQ1NzZMNjYuNjI2MiA2MS40MzYxTDY2LjYyNjIgNDUuODEzOEw1Mi42MzE2IDUyLjgzNTZMNTIuNjMxNiA2OC40NTc2Wk02OC4xNDYxIDYwLjkwMzRMODIuMTQwNSA1My44ODE2TDgyLjE0MDUgMzguMjU5NUw2OC4xNDYxIDQ1LjI4MTFMNjguMTQ2MSA2MC45MDM0WiIvPiYjeGE7PHBhdGggc3Ryb2tlLXdpZHRoPSI1IiBzdHJva2UtbGluZWpvaW49Im1pdGVyIiBzdHJva2UtbGluZWNhcD0icm91bmQiIHN0cm9rZT0iI2ZmZmZmZiIgb3BhY2l0eT0iMSIgZmlsbC1ydWxlPSJub256ZXJvIiBmaWxsPSIjZWMwMDE0IiBkPSJNNjkuNjE2MiA3Ni44MTQ3QzY5LjYxNjIgNjEuNTkxIDgxLjk1NzQgNDkuMjQ5OCA5Ny4xODEgNDkuMjQ5OEMxMTIuNDA1IDQ5LjI0OTggMTI0Ljc0NiA2MS41OTEgMTI0Ljc0NiA3Ni44MTQ3QzEyNC43NDYgOTIuMDM4MyAxMTIuNDA1IDEwNC4zOCA5Ny4xODEgMTA0LjM4QzgxLjk1NzQgMTA0LjM4IDY5LjYxNjIgOTIuMDM4MyA2OS42MTYyIDc2LjgxNDdaIi8+JiN4YTs8cGF0aCBzdHJva2U9Im5vbmUiIG9wYWNpdHk9IjEiIGZpbGwtcnVsZT0ibm9uemVybyIgZmlsbD0iIzE5OTFlOCIgZD0iTTE3Ni4wNTMgODQuOTc3MkwxOTAuMDQ4IDc3Ljk1NTRMMTkwLjA0OCA2Mi4zMzIxTDE3Ni4wNTMgNjkuMzU0OUwxNzYuMDUzIDg0Ljk3NzJaTTE3Ni4wNTMgNjcuNjc0NUwxOTAuMDQ4IDYwLjY1MjdMMTkwLjA0OCA0NS4wMzA3TDE3Ni4wNTMgNTIuMDUyMkwxNzYuMDUzIDY3LjY3NDVaTTE1OC4wODEgMTAuNjU4MUwxNDQuMDA1IDMuNjQwNDhMMTMwLjAxMSAxMC42NjIzTDE0NC4wODYgMTcuNjc5N0wxNTguMDgxIDEwLjY1ODFaTTE0Mi41NjcgMTguNDQzMkwxMjguNDkgMTEuNDI1NUwxMTQuNDk1IDE4LjQ0NzNMMTI4LjU3MiAyNS40NjVMMTQyLjU2NyAxOC40NDMyWk0xNTkuNzEzIDI1LjQ3MDJMMTczLjcwNyAxOC40NDczTDE1OS42MjEgMTEuNDI1NUwxNDUuNjI3IDE4LjQ0NzNMMTU5LjcxMyAyNS40NzAyWk0xMzAuMTEyIDI2LjIzMjRMMTQ0LjE5OCAzMy4yNTUyTDE1OC4xOTMgMjYuMjMyNEwxNDQuMTA3IDE5LjIxMDlMMTMwLjExMiAyNi4yMzI0Wk0xNzUuMjM4IDE5LjIxMDlMMTYxLjI0NCAyNi4yMzI0TDE3NS4zMyAzMy4yNTQyTDE4OS4zMjQgMjYuMjMyNEwxNzUuMjM4IDE5LjIxMDlaTTExMi45NzEgMTkuMjEwOUw5OC45NzY1IDI2LjIzMjRMMTEzLjA1MyAzMy4yNUwxMjcuMDQ4IDI2LjIyODVMMTEyLjk3MSAxOS4yMTA5Wk0xMjguNTg3IDI2Ljk5NTlMMTE0LjU5MyAzNC4wMTc3TDEyOC42NzkgNDEuMDQwNUwxNDIuNjczIDM0LjAxNzdMMTI4LjU4NyAyNi45OTU5Wk0xNDUuMDI0IDEwMC41NDhMMTU5LjAxOCA5My41MjU4TDE1OS4wMTggNzcuOTAzN0wxNDUuMDI0IDg0LjkyNTJMMTQ1LjAyNCAxMDAuNTQ4Wk0xNDUuMDI0IDgzLjI0NDlMMTU5LjAxOCA3Ni4yMjMxTDE1OS4wMTggNjAuNjAxTDE0NS4wMjQgNjcuNjIyNkwxNDUuMDI0IDgzLjI0NDlaTTE0NC4yMDcgMzQuNzgxMkwxMzAuMjEzIDQxLjgwMjhMMTQ0LjI5OSA0OC44MjQ2TDE1OC4yOTMgNDEuODAyOEwxNDQuMjA3IDM0Ljc4MTJaTTk4LjE2NTIgNzcuOTU1NEwxMTIuMjQyIDg0Ljk3M0wxMTIuMjQyIDY5LjM1MUw5OC4xNjUyIDYyLjMzMzNMOTguMTY1MiA3Ny45NTU0Wk05OC4xNjUyIDYwLjY1MjdMMTEyLjI0MiA2Ny42NzA0TDExMi4yNDIgNTIuMDQ4M0w5OC4xNjUyIDQ1LjAzMDdMOTguMTY1MiA2MC42NTI3Wk05OC4xNjUyIDQzLjI3MjlMMTEyLjI0MiA1MC4yOTA1TDExMi4yNDIgMzQuNjY4M0w5OC4xNjUyIDI3LjY1MDZMOTguMTY1MiA0My4yNzI5Wk0xMTMuNzgyIDg1Ljc0MDdMMTI3Ljg2OCA5Mi43NjIyTDEyNy44NjggNzcuMTQwMkwxMTMuNzgyIDcwLjExODRMMTEzLjc4MiA4NS43NDA3Wk0xMTMuNzgyIDY4LjQzOEwxMjcuODY4IDc1LjQ2MDZMMTI3Ljg2OCA1OS44Mzc1TDExMy43ODIgNTIuODE1N0wxMTMuNzgyIDY4LjQzOFpNMTEzLjc4MiA1MS4wNTc5TDEyNy44NjggNTguMDc5OEwxMjcuODY4IDQyLjQ1NzVMMTEzLjc4MiAzNS40MzU5TDExMy43ODIgNTEuMDU3OVpNMTI5LjM5OSA5My41MjU4TDE0My40ODUgMTAwLjU0OEwxNDMuNDg1IDg0LjkyNTJMMTI5LjM5OSA3Ny45MDM3TDEyOS4zOTkgOTMuNTI1OFpNMTI5LjM5OSA3Ni4yMjMxTDE0My40ODUgODMuMjQ0OUwxNDMuNDg1IDY3LjYyMjZMMTI5LjM5OSA2MC42MDFMMTI5LjM5OSA3Ni4yMjMxWk0xMjkuMzk5IDU4Ljg0MzJMMTQzLjQ4NSA2NS44NjQ4TDE0My40ODUgNTAuMjQyOEwxMjkuMzk5IDQzLjIyMDlMMTI5LjM5OSA1OC44NDMyWk0xNjAuNTM4IDkyLjc2MjJMMTc0LjUzMyA4NS43NDA3TDE3NC41MzMgNzAuMTE3NEwxNjAuNTM4IDc3LjE0MDJMMTYwLjUzOCA5Mi43NjIyWk0xNjAuNTM4IDc1LjQ1OTZMMTc0LjUzMyA2OC40MzhMMTc0LjUzMyA1Mi44MTU3TDE2MC41MzggNTkuODM3NUwxNjAuNTM4IDc1LjQ1OTZaTTE1OS43MjMgMjYuOTk1OUwxNDUuNzI4IDM0LjAxNzdMMTU5LjgxNCA0MS4wMzkzTDE3My44MDkgMzQuMDE3N0wxNTkuNzIzIDI2Ljk5NTlaTTE3Ni4wNTMgMzQuOTAzMkwxNzYuMDUzIDUwLjUyNTNMMTkwLjA0OCA0My41MDM3TDE5MC4wNDggMjcuODgxNEwxNzYuMDUzIDM0LjkwMzJaTTE0NS4wMjQgNjUuODY0OEwxNTkuMDE4IDU4Ljg0MzJMMTU5LjAxOCA0My4yMjA5TDE0NS4wMjQgNTAuMjQyOEwxNDUuMDI0IDY1Ljg2NDhaTTE2MC41MzggNTguMzEwNkwxNzQuNTMzIDUxLjI4ODhMMTc0LjUzMyAzNS42NjY3TDE2MC41MzggNDIuNjg4M0wxNjAuNTM4IDU4LjMxMDZaIi8+JiN4YTs8L2c+JiN4YTs8L2c+JiN4YTs8L3N2Zz4=;" parent="1" vertex="1">
          <mxGeometry x="601.61" y="397.5" width="70.78" height="65" as="geometry" />
        </mxCell>
      </root>
    </mxGraphModel>
  </diagram>
</mxfile>
